<mxfile host="app.diagrams.net" modified="2023-05-28T23:06:12.755Z" agent="Mozilla/5.0 (Windows NT 10.0; Win64; x64) AppleWebKit/537.36 (KHTML, like Gecko) Chrome/113.0.0.0 Safari/537.36" version="21.3.2" etag="c1BbyNRc_gFumKO8UwaU" type="github">
  <diagram name="PÃ¡gina-1" id="5dX_CYmj3qB6tYsNVG1z">
    <mxGraphModel>
      <root>
        <mxCell id="0" />
        <mxCell id="1" parent="0" />
      </root>
    </mxGraphModel>
  </diagram>
</mxfile>
